<?xml version="1.0" encoding="utf-8"?>
<!-- Generator: Adobe Illustrator 16.0.0, SVG Export Plug-In . SVG Version: 6.00 Build 0)  -->
<!DOCTYPE svg PUBLIC "-//W3C//DTD SVG 1.1//EN" "http://www.w3.org/Graphics/SVG/1.1/DTD/svg11.dtd">
<svg version="1.1"
	 id="Layer_1" xmlns:dc="http://purl.org/dc/elements/1.1/" xmlns:cc="http://creativecommons.org/ns#" xmlns:rdf="http://www.w3.org/1999/02/22-rdf-syntax-ns#" xmlns:svg="http://www.w3.org/2000/svg"
	 xmlns="http://www.w3.org/2000/svg" xmlns:xlink="http://www.w3.org/1999/xlink" x="0px" y="0px" width="528px" height="528px"
	 viewBox="0 0 528 528" enable-background="new 0 0 528 528" xml:space="preserve">
<polygon points="247.302,223.68 264,123.416 280.702,223.68 291.5,236.5 304.321,247.3 404.584,264 304.321,280.7 291.5,291.5 
	280.702,304.319 264,404.584 247.302,304.319 236.5,291.5 223.683,280.7 123.416,264 223.683,247.3 236.5,236.5 "/>
<rect x="83.75" y="83.75" fill="none" stroke="#000000" stroke-width="5" stroke-miterlimit="10" width="360.5" height="360.5"/>
<polygon points="247.302,223.68 264.002,156 280.702,223.68 340.371,187.632 304.321,247.3 372.002,264 304.321,280.7 
	340.371,340.369 280.702,304.319 264.002,372 247.302,304.319 187.634,340.369 223.683,280.7 156.002,264 223.683,247.3 
	187.634,187.632 "/>
</svg>
